<mxfile host="app.diagrams.net" modified="2023-08-02T05:23:58.135Z" agent="Mozilla/5.0 (Windows NT 10.0; Win64; x64) AppleWebKit/537.36 (KHTML, like Gecko) Chrome/115.0.0.0 Safari/537.36" etag="TOyv5Vxct-kNVwzZGnDA" version="21.6.6" type="device">
  <diagram name="Page-1" id="h4GeMwYH-yroKZa2HMJ6">
    <mxGraphModel dx="880" dy="389" grid="1" gridSize="10" guides="1" tooltips="1" connect="1" arrows="1" fold="1" page="1" pageScale="1" pageWidth="850" pageHeight="1100" math="0" shadow="0">
      <root>
        <mxCell id="0" />
        <mxCell id="1" parent="0" />
        <mxCell id="XrJ-AxaFeGRwnUcX6gHz-3" value="" style="edgeStyle=orthogonalEdgeStyle;rounded=0;orthogonalLoop=1;jettySize=auto;html=1;fontSize=16;" edge="1" parent="1" source="XrJ-AxaFeGRwnUcX6gHz-1" target="XrJ-AxaFeGRwnUcX6gHz-2">
          <mxGeometry relative="1" as="geometry" />
        </mxCell>
        <mxCell id="XrJ-AxaFeGRwnUcX6gHz-1" value="Start" style="ellipse;whiteSpace=wrap;html=1;fontSize=16;" vertex="1" parent="1">
          <mxGeometry x="165" y="70" width="90" height="60" as="geometry" />
        </mxCell>
        <mxCell id="XrJ-AxaFeGRwnUcX6gHz-5" value="" style="edgeStyle=orthogonalEdgeStyle;rounded=0;orthogonalLoop=1;jettySize=auto;html=1;fontSize=16;" edge="1" parent="1" source="XrJ-AxaFeGRwnUcX6gHz-2" target="XrJ-AxaFeGRwnUcX6gHz-4">
          <mxGeometry relative="1" as="geometry" />
        </mxCell>
        <mxCell id="XrJ-AxaFeGRwnUcX6gHz-2" value="Logged in" style="rounded=1;whiteSpace=wrap;html=1;fontSize=16;" vertex="1" parent="1">
          <mxGeometry x="170" y="160" width="80" height="60" as="geometry" />
        </mxCell>
        <mxCell id="XrJ-AxaFeGRwnUcX6gHz-7" value="" style="edgeStyle=orthogonalEdgeStyle;rounded=0;orthogonalLoop=1;jettySize=auto;html=1;fontSize=16;" edge="1" parent="1" source="XrJ-AxaFeGRwnUcX6gHz-4" target="XrJ-AxaFeGRwnUcX6gHz-6">
          <mxGeometry relative="1" as="geometry" />
        </mxCell>
        <mxCell id="XrJ-AxaFeGRwnUcX6gHz-4" value="Go to search" style="whiteSpace=wrap;html=1;rounded=1;fontSize=16;" vertex="1" parent="1">
          <mxGeometry x="170" y="250" width="80" height="60" as="geometry" />
        </mxCell>
        <mxCell id="XrJ-AxaFeGRwnUcX6gHz-9" value="" style="edgeStyle=orthogonalEdgeStyle;rounded=0;orthogonalLoop=1;jettySize=auto;html=1;fontSize=16;" edge="1" parent="1" source="XrJ-AxaFeGRwnUcX6gHz-6" target="XrJ-AxaFeGRwnUcX6gHz-8">
          <mxGeometry relative="1" as="geometry" />
        </mxCell>
        <mxCell id="XrJ-AxaFeGRwnUcX6gHz-6" value="Give job name" style="whiteSpace=wrap;html=1;rounded=1;fontSize=16;" vertex="1" parent="1">
          <mxGeometry x="165" y="340" width="90" height="50" as="geometry" />
        </mxCell>
        <mxCell id="XrJ-AxaFeGRwnUcX6gHz-11" value="" style="edgeStyle=orthogonalEdgeStyle;rounded=0;orthogonalLoop=1;jettySize=auto;html=1;fontSize=16;" edge="1" parent="1" source="XrJ-AxaFeGRwnUcX6gHz-8" target="XrJ-AxaFeGRwnUcX6gHz-10">
          <mxGeometry relative="1" as="geometry" />
        </mxCell>
        <mxCell id="XrJ-AxaFeGRwnUcX6gHz-8" value="Click on job button" style="rounded=1;whiteSpace=wrap;html=1;fontSize=16;" vertex="1" parent="1">
          <mxGeometry x="165" y="450" width="90" height="50" as="geometry" />
        </mxCell>
        <mxCell id="XrJ-AxaFeGRwnUcX6gHz-13" value="" style="edgeStyle=orthogonalEdgeStyle;rounded=0;orthogonalLoop=1;jettySize=auto;html=1;fontSize=16;" edge="1" parent="1" source="XrJ-AxaFeGRwnUcX6gHz-10">
          <mxGeometry relative="1" as="geometry">
            <mxPoint x="460" y="473" as="targetPoint" />
          </mxGeometry>
        </mxCell>
        <mxCell id="XrJ-AxaFeGRwnUcX6gHz-10" value="Date Posted" style="whiteSpace=wrap;html=1;rounded=1;fontSize=16;" vertex="1" parent="1">
          <mxGeometry x="305" y="437.5" width="75" height="75" as="geometry" />
        </mxCell>
        <mxCell id="XrJ-AxaFeGRwnUcX6gHz-54" style="edgeStyle=orthogonalEdgeStyle;rounded=0;orthogonalLoop=1;jettySize=auto;html=1;exitX=1;exitY=0.5;exitDx=0;exitDy=0;entryX=0;entryY=0.663;entryDx=0;entryDy=0;entryPerimeter=0;" edge="1" parent="1" source="XrJ-AxaFeGRwnUcX6gHz-12" target="XrJ-AxaFeGRwnUcX6gHz-50">
          <mxGeometry relative="1" as="geometry" />
        </mxCell>
        <mxCell id="XrJ-AxaFeGRwnUcX6gHz-12" value="Experience Level" style="whiteSpace=wrap;html=1;rounded=1;fontSize=16;" vertex="1" parent="1">
          <mxGeometry x="600" y="452.5" width="100" height="60" as="geometry" />
        </mxCell>
        <mxCell id="XrJ-AxaFeGRwnUcX6gHz-16" value="Choose from dropdown any one of option" style="shape=tape;whiteSpace=wrap;html=1;fontSize=16;size=0.2;" vertex="1" parent="1">
          <mxGeometry x="230" y="580" width="120" height="100" as="geometry" />
        </mxCell>
        <mxCell id="XrJ-AxaFeGRwnUcX6gHz-17" value="Choose experience level(s) from dropdown" style="shape=tape;whiteSpace=wrap;html=1;fontSize=16;size=0.2;" vertex="1" parent="1">
          <mxGeometry x="425" y="570" width="130" height="110" as="geometry" />
        </mxCell>
        <mxCell id="XrJ-AxaFeGRwnUcX6gHz-18" value="Choose or type company name" style="shape=tape;whiteSpace=wrap;html=1;fontSize=16;size=0.3;" vertex="1" parent="1">
          <mxGeometry x="650" y="570" width="120" height="100" as="geometry" />
        </mxCell>
        <mxCell id="XrJ-AxaFeGRwnUcX6gHz-49" style="edgeStyle=orthogonalEdgeStyle;rounded=0;orthogonalLoop=1;jettySize=auto;html=1;exitX=0.5;exitY=1;exitDx=0;exitDy=0;entryX=0.5;entryY=0;entryDx=0;entryDy=0;" edge="1" parent="1" source="XrJ-AxaFeGRwnUcX6gHz-26" target="XrJ-AxaFeGRwnUcX6gHz-33">
          <mxGeometry relative="1" as="geometry" />
        </mxCell>
        <mxCell id="XrJ-AxaFeGRwnUcX6gHz-26" value="Set Job Alert" style="whiteSpace=wrap;html=1;rounded=1;fontSize=16;" vertex="1" parent="1">
          <mxGeometry x="1130" y="362.5" width="100" height="35" as="geometry" />
        </mxCell>
        <mxCell id="XrJ-AxaFeGRwnUcX6gHz-29" value="Choose job specification&amp;nbsp;" style="shape=tape;whiteSpace=wrap;html=1;size=0.2;fontSize=16;" vertex="1" parent="1">
          <mxGeometry x="480" y="330" width="120" height="100" as="geometry" />
        </mxCell>
        <mxCell id="XrJ-AxaFeGRwnUcX6gHz-30" value="Choose job location&amp;nbsp;" style="shape=tape;whiteSpace=wrap;html=1;size=0.2222222222222222;fontSize=16;" vertex="1" parent="1">
          <mxGeometry x="470" y="220" width="120" height="90" as="geometry" />
        </mxCell>
        <mxCell id="XrJ-AxaFeGRwnUcX6gHz-33" value="&lt;font style=&quot;font-size: 16px;&quot;&gt;End&lt;/font&gt;" style="ellipse;whiteSpace=wrap;html=1;" vertex="1" parent="1">
          <mxGeometry x="1140" y="435" width="80" height="70" as="geometry" />
        </mxCell>
        <mxCell id="XrJ-AxaFeGRwnUcX6gHz-36" style="edgeStyle=orthogonalEdgeStyle;rounded=0;orthogonalLoop=1;jettySize=auto;html=1;exitX=1;exitY=0.5;exitDx=0;exitDy=0;entryX=0;entryY=0.5;entryDx=0;entryDy=0;" edge="1" parent="1" source="XrJ-AxaFeGRwnUcX6gHz-35" target="XrJ-AxaFeGRwnUcX6gHz-12">
          <mxGeometry relative="1" as="geometry" />
        </mxCell>
        <mxCell id="XrJ-AxaFeGRwnUcX6gHz-37" style="edgeStyle=orthogonalEdgeStyle;rounded=0;orthogonalLoop=1;jettySize=auto;html=1;entryX=0.5;entryY=1;entryDx=0;entryDy=0;" edge="1" parent="1" source="XrJ-AxaFeGRwnUcX6gHz-35">
          <mxGeometry relative="1" as="geometry">
            <mxPoint x="850" y="497.5" as="targetPoint" />
            <Array as="points">
              <mxPoint x="470" y="530" />
              <mxPoint x="850" y="530" />
            </Array>
          </mxGeometry>
        </mxCell>
        <mxCell id="XrJ-AxaFeGRwnUcX6gHz-35" value="Experience Level" style="rhombus;whiteSpace=wrap;html=1;" vertex="1" parent="1">
          <mxGeometry x="430" y="442.5" width="80" height="80" as="geometry" />
        </mxCell>
        <mxCell id="XrJ-AxaFeGRwnUcX6gHz-41" value="" style="edgeStyle=orthogonalEdgeStyle;rounded=0;orthogonalLoop=1;jettySize=auto;html=1;" edge="1" parent="1" source="XrJ-AxaFeGRwnUcX6gHz-39" target="XrJ-AxaFeGRwnUcX6gHz-40">
          <mxGeometry relative="1" as="geometry" />
        </mxCell>
        <mxCell id="XrJ-AxaFeGRwnUcX6gHz-39" value="Job Type" style="rhombus;whiteSpace=wrap;html=1;" vertex="1" parent="1">
          <mxGeometry x="810" y="225" width="80" height="80" as="geometry" />
        </mxCell>
        <mxCell id="XrJ-AxaFeGRwnUcX6gHz-43" value="" style="edgeStyle=orthogonalEdgeStyle;rounded=0;orthogonalLoop=1;jettySize=auto;html=1;" edge="1" parent="1" source="XrJ-AxaFeGRwnUcX6gHz-40" target="XrJ-AxaFeGRwnUcX6gHz-42">
          <mxGeometry relative="1" as="geometry" />
        </mxCell>
        <mxCell id="XrJ-AxaFeGRwnUcX6gHz-40" value="Specify Job Type" style="rounded=1;whiteSpace=wrap;html=1;" vertex="1" parent="1">
          <mxGeometry x="790" y="130" width="120" height="60" as="geometry" />
        </mxCell>
        <mxCell id="XrJ-AxaFeGRwnUcX6gHz-45" value="" style="edgeStyle=orthogonalEdgeStyle;rounded=0;orthogonalLoop=1;jettySize=auto;html=1;" edge="1" parent="1" source="XrJ-AxaFeGRwnUcX6gHz-42" target="XrJ-AxaFeGRwnUcX6gHz-44">
          <mxGeometry relative="1" as="geometry" />
        </mxCell>
        <mxCell id="XrJ-AxaFeGRwnUcX6gHz-42" value="Job location" style="rhombus;whiteSpace=wrap;html=1;rounded=1;" vertex="1" parent="1">
          <mxGeometry x="810" y="10" width="80" height="80" as="geometry" />
        </mxCell>
        <mxCell id="XrJ-AxaFeGRwnUcX6gHz-47" value="" style="edgeStyle=orthogonalEdgeStyle;rounded=0;orthogonalLoop=1;jettySize=auto;html=1;" edge="1" parent="1" source="XrJ-AxaFeGRwnUcX6gHz-44" target="XrJ-AxaFeGRwnUcX6gHz-46">
          <mxGeometry relative="1" as="geometry" />
        </mxCell>
        <mxCell id="XrJ-AxaFeGRwnUcX6gHz-44" value="Specify Location" style="whiteSpace=wrap;html=1;rounded=1;" vertex="1" parent="1">
          <mxGeometry x="1120" y="20" width="120" height="60" as="geometry" />
        </mxCell>
        <mxCell id="XrJ-AxaFeGRwnUcX6gHz-48" style="edgeStyle=orthogonalEdgeStyle;rounded=0;orthogonalLoop=1;jettySize=auto;html=1;exitX=0.5;exitY=1;exitDx=0;exitDy=0;entryX=0.5;entryY=0;entryDx=0;entryDy=0;" edge="1" parent="1" source="XrJ-AxaFeGRwnUcX6gHz-46" target="XrJ-AxaFeGRwnUcX6gHz-26">
          <mxGeometry relative="1" as="geometry" />
        </mxCell>
        <mxCell id="XrJ-AxaFeGRwnUcX6gHz-46" value="Easy Apply" style="whiteSpace=wrap;html=1;rounded=1;" vertex="1" parent="1">
          <mxGeometry x="1120" y="210" width="120" height="60" as="geometry" />
        </mxCell>
        <mxCell id="XrJ-AxaFeGRwnUcX6gHz-52" style="edgeStyle=orthogonalEdgeStyle;rounded=0;orthogonalLoop=1;jettySize=auto;html=1;exitX=0.5;exitY=0;exitDx=0;exitDy=0;entryX=0.5;entryY=1;entryDx=0;entryDy=0;" edge="1" parent="1" source="XrJ-AxaFeGRwnUcX6gHz-50" target="XrJ-AxaFeGRwnUcX6gHz-51">
          <mxGeometry relative="1" as="geometry" />
        </mxCell>
        <mxCell id="XrJ-AxaFeGRwnUcX6gHz-50" value="Specify Company" style="rhombus;whiteSpace=wrap;html=1;" vertex="1" parent="1">
          <mxGeometry x="810" y="430" width="80" height="80" as="geometry" />
        </mxCell>
        <mxCell id="XrJ-AxaFeGRwnUcX6gHz-53" style="edgeStyle=orthogonalEdgeStyle;rounded=0;orthogonalLoop=1;jettySize=auto;html=1;" edge="1" parent="1" source="XrJ-AxaFeGRwnUcX6gHz-51" target="XrJ-AxaFeGRwnUcX6gHz-39">
          <mxGeometry relative="1" as="geometry" />
        </mxCell>
        <mxCell id="XrJ-AxaFeGRwnUcX6gHz-51" value="Specified Company(ies)" style="rounded=1;whiteSpace=wrap;html=1;" vertex="1" parent="1">
          <mxGeometry x="790" y="350" width="120" height="40" as="geometry" />
        </mxCell>
      </root>
    </mxGraphModel>
  </diagram>
</mxfile>
